<svg xmlns="http://www.w3.org/2000/svg" xmlns:xlink="http://www.w3.org/1999/xlink" width="2016" zoomAndPan="magnify" viewBox="0 0 1512 755.999995" height="1008" preserveAspectRatio="xMidYMid meet" version="1.2"><defs/><g id="eb876c5aff"><rect x="0" width="1512" y="0" height="755.999995" style="fill:#ffffff;fill-opacity:1;stroke:none;"/><rect x="0" width="1512" y="0" height="755.999995" style="fill:#ffffff;fill-opacity:1;stroke:none;"/><g style="fill:#7f3270;fill-opacity:1;"><g transform="translate(41.00332, 517.124995)"><path style="stroke:none" d="M 295.21875 0 L 271.296875 0 L 248.75 -166.75 L 247.375 -175.625 L 243.28125 -167.078125 L 160.59375 0 L 154.4375 0 L 70.734375 -167.421875 L 66.28125 -176.65625 L 64.921875 -166.40625 L 42.703125 0 L 18.796875 0 L 53.640625 -245.328125 L 57.75 -245.328125 L 153.765625 -51.9375 L 157.515625 -44.078125 L 161.625 -52.28125 L 256.265625 -245.328125 L 260.359375 -245.328125 Z M 295.21875 0 "/></g></g><g style="fill:#7f3270;fill-opacity:1;"><g transform="translate(355.018195, 517.124995)"><path style="stroke:none" d="M 112.421875 -245.328125 L 219.015625 0 L 192.375 0 L 109.6875 -189.640625 L 28.359375 0 L 1.703125 0 L 106.953125 -245.328125 Z M 112.421875 -245.328125 "/></g></g><g style="fill:#7f3270;fill-opacity:1;"><g transform="translate(575.751186, 517.124995)"><path style="stroke:none" d="M 197.5 -245.328125 L 222.09375 -245.328125 L 222.09375 0 L 216.625 0 L 54.328125 -185.53125 L 54.328125 0 L 29.734375 0 L 29.734375 -245.328125 L 34.859375 -245.328125 L 197.5 -57.40625 Z M 197.5 -245.328125 "/></g></g><g style="fill:#7f3270;fill-opacity:1;"><g transform="translate(827.236464, 517.124995)"><path style="stroke:none" d="M 112.421875 -245.328125 L 219.015625 0 L 192.375 0 L 109.6875 -189.640625 L 28.359375 0 L 1.703125 0 L 106.953125 -245.328125 Z M 112.421875 -245.328125 "/></g></g><g style="fill:#7f3270;fill-opacity:1;"><g transform="translate(1047.969456, 517.124995)"><path style="stroke:none" d="M 99.765625 -245.328125 C 127.785156 -245.328125 148.742188 -239.519531 162.640625 -227.90625 C 176.535156 -216.289062 183.484375 -200.34375 183.484375 -180.0625 C 183.484375 -165.488281 179.953125 -153.300781 172.890625 -143.5 C 165.828125 -133.707031 155.914062 -126.363281 143.15625 -121.46875 C 130.40625 -116.570312 115.488281 -114.125 98.40625 -114.125 L 186.90625 0 L 156.5 0 L 69.703125 -114.125 L 54.328125 -114.125 L 54.328125 0 L 29.734375 0 L 29.734375 -245.328125 Z M 98.40625 -138.046875 C 117.3125 -138.046875 131.945312 -141.460938 142.3125 -148.296875 C 152.675781 -155.128906 157.859375 -165.71875 157.859375 -180.0625 C 157.859375 -192.59375 153.414062 -202.613281 144.53125 -210.125 C 135.644531 -217.644531 122.320312 -221.40625 104.5625 -221.40625 L 54.328125 -221.40625 L 54.328125 -138.046875 Z M 98.40625 -138.046875 "/></g></g><g style="fill:#7f3270;fill-opacity:1;"><g transform="translate(1250.251091, 517.124995)"><path style="stroke:none" d="M 112.421875 -245.328125 L 219.015625 0 L 192.375 0 L 109.6875 -189.640625 L 28.359375 0 L 1.703125 0 L 106.953125 -245.328125 Z M 112.421875 -245.328125 "/></g></g></g></svg>