<svg xmlns="http://www.w3.org/2000/svg" xmlns:xlink="http://www.w3.org/1999/xlink" width="2016" zoomAndPan="magnify" viewBox="0 0 1512 755.999995" height="1008" preserveAspectRatio="xMidYMid meet" version="1.2"><defs/><g id="524691d81e"><rect x="0" width="1512" y="0" height="755.999995" style="fill:#ffffff;fill-opacity:1;stroke:none;"/><rect x="0" width="1512" y="0" height="755.999995" style="fill:#ffffff;fill-opacity:1;stroke:none;"/><g style="fill:#7f3270;fill-opacity:1;"><g transform="translate(321.434008, 403.602048)"><path style="stroke:none" d="M 179.421875 0 L 164.890625 0 L 151.1875 -101.34375 L 150.359375 -106.75 L 147.859375 -101.546875 L 97.609375 0 L 93.875 0 L 42.984375 -101.765625 L 40.28125 -107.359375 L 39.453125 -101.140625 L 25.953125 0 L 11.421875 0 L 32.609375 -149.109375 L 35.09375 -149.109375 L 93.453125 -31.5625 L 95.734375 -26.796875 L 98.234375 -31.78125 L 155.75 -149.109375 L 158.25 -149.109375 Z M 179.421875 0 "/></g></g><g style="fill:#7f3270;fill-opacity:1;"><g transform="translate(512.277552, 403.602048)"><path style="stroke:none" d="M 68.328125 -149.109375 L 133.125 0 L 116.921875 0 L 66.65625 -115.265625 L 17.234375 0 L 1.03125 0 L 65 -149.109375 Z M 68.328125 -149.109375 "/></g></g><g style="fill:#7f3270;fill-opacity:1;"><g transform="translate(646.428714, 403.602048)"><path style="stroke:none" d="M 120.03125 -149.109375 L 134.984375 -149.109375 L 134.984375 0 L 131.65625 0 L 33.015625 -112.765625 L 33.015625 0 L 18.0625 0 L 18.0625 -149.109375 L 21.1875 -149.109375 L 120.03125 -34.890625 Z M 120.03125 -149.109375 "/></g></g><g style="fill:#7f3270;fill-opacity:1;"><g transform="translate(799.269668, 403.602048)"><path style="stroke:none" d="M 68.328125 -149.109375 L 133.125 0 L 116.921875 0 L 66.65625 -115.265625 L 17.234375 0 L 1.03125 0 L 65 -149.109375 Z M 68.328125 -149.109375 "/></g></g><g style="fill:#7f3270;fill-opacity:1;"><g transform="translate(933.42083, 403.602048)"><path style="stroke:none" d="M 60.640625 -149.109375 C 77.671875 -149.109375 90.40625 -145.578125 98.84375 -138.515625 C 107.289062 -131.453125 111.515625 -121.757812 111.515625 -109.4375 C 111.515625 -100.582031 109.367188 -93.175781 105.078125 -87.21875 C 100.785156 -81.269531 94.765625 -76.804688 87.015625 -73.828125 C 79.265625 -70.847656 70.195312 -69.359375 59.8125 -69.359375 L 113.59375 0 L 95.109375 0 L 42.359375 -69.359375 L 33.015625 -69.359375 L 33.015625 0 L 18.0625 0 L 18.0625 -149.109375 Z M 59.8125 -83.90625 C 71.300781 -83.90625 80.191406 -85.976562 86.484375 -90.125 C 92.785156 -94.28125 95.9375 -100.71875 95.9375 -109.4375 C 95.9375 -117.050781 93.238281 -123.144531 87.84375 -127.71875 C 82.445312 -132.289062 74.347656 -134.578125 63.546875 -134.578125 L 33.015625 -134.578125 L 33.015625 -83.90625 Z M 59.8125 -83.90625 "/></g></g><g style="fill:#7f3270;fill-opacity:1;"><g transform="translate(1056.358118, 403.602048)"><path style="stroke:none" d="M 68.328125 -149.109375 L 133.125 0 L 116.921875 0 L 66.65625 -115.265625 L 17.234375 0 L 1.03125 0 L 65 -149.109375 Z M 68.328125 -149.109375 "/></g></g><g style="fill:#7f3270;fill-opacity:1;"><g transform="translate(322.334797, 530.927241)"><path style="stroke:none" d="M 11.578125 -95.578125 L 66.15625 -95.578125 L 66.15625 -86.390625 L 21.171875 -86.390625 L 21.171875 -56.171875 L 66.15625 -56.171875 L 66.15625 -47.125 L 21.171875 -47.125 L 21.171875 -9.3125 L 66.15625 -9.3125 L 66.15625 0 L 11.578125 0 Z M 11.578125 -95.578125 "/></g></g><g style="fill:#7f3270;fill-opacity:1;"><g transform="translate(393.555428, 530.927241)"><path style="stroke:none" d="M 76.953125 -95.578125 L 86.53125 -95.578125 L 86.53125 0 L 84.40625 0 L 21.171875 -72.28125 L 21.171875 0 L 11.578125 0 L 11.578125 -95.578125 L 13.578125 -95.578125 L 76.953125 -22.359375 Z M 76.953125 -95.578125 "/></g></g><g style="fill:#7f3270;fill-opacity:1;"><g transform="translate(491.533832, 530.927241)"><path style="stroke:none" d="M 109.5625 -45.921875 L 109.5625 -45.65625 C 109.5625 -35.71875 107.539062 -27.15625 103.5 -19.96875 C 99.46875 -12.78125 93.832031 -7.273438 86.59375 -3.453125 C 79.363281 0.359375 71 2.265625 61.5 2.265625 C 50.851562 2.265625 41.425781 -0.0390625 33.21875 -4.65625 C 25.007812 -9.269531 18.6875 -15.394531 14.25 -23.03125 C 9.8125 -30.664062 7.59375 -38.921875 7.59375 -47.796875 C 7.59375 -56.847656 9.8125 -65.1875 14.25 -72.8125 C 18.6875 -80.445312 24.875 -86.550781 32.8125 -91.125 C 40.757812 -95.695312 49.835938 -97.984375 60.046875 -97.984375 C 68.648438 -97.984375 76.457031 -96.453125 83.46875 -93.390625 C 90.476562 -90.328125 97.269531 -85.6875 103.84375 -79.46875 L 96.515625 -72.546875 C 91.191406 -77.785156 85.378906 -81.78125 79.078125 -84.53125 C 72.773438 -87.28125 66.519531 -88.65625 60.3125 -88.65625 C 52.320312 -88.65625 45.0625 -86.878906 38.53125 -83.328125 C 32.007812 -79.785156 26.882812 -74.90625 23.15625 -68.6875 C 19.4375 -62.476562 17.578125 -55.601562 17.578125 -48.0625 C 17.578125 -40.78125 19.484375 -33.988281 23.296875 -27.6875 C 27.109375 -21.382812 32.382812 -16.367188 39.125 -12.640625 C 45.875 -8.921875 53.421875 -7.0625 61.765625 -7.0625 C 67.890625 -7.0625 73.613281 -8.210938 78.9375 -10.515625 C 84.269531 -12.828125 88.6875 -16.203125 92.1875 -20.640625 C 95.695312 -25.078125 97.894531 -30.398438 98.78125 -36.609375 L 68.296875 -36.609375 L 68.296875 -45.921875 Z M 109.5625 -45.921875 "/></g></g><g style="fill:#7f3270;fill-opacity:1;"><g transform="translate(607.61685, 530.927241)"><path style="stroke:none" d="M 11.578125 -95.578125 L 21.171875 -95.578125 L 21.171875 0 L 11.578125 0 Z M 11.578125 -95.578125 "/></g></g><g style="fill:#7f3270;fill-opacity:1;"><g transform="translate(640.231968, 530.927241)"><path style="stroke:none" d="M 76.953125 -95.578125 L 86.53125 -95.578125 L 86.53125 0 L 84.40625 0 L 21.171875 -72.28125 L 21.171875 0 L 11.578125 0 L 11.578125 -95.578125 L 13.578125 -95.578125 L 76.953125 -22.359375 Z M 76.953125 -95.578125 "/></g></g><g style="fill:#7f3270;fill-opacity:1;"><g transform="translate(738.210372, 530.927241)"><path style="stroke:none" d="M 11.578125 -95.578125 L 66.15625 -95.578125 L 66.15625 -86.390625 L 21.171875 -86.390625 L 21.171875 -56.171875 L 66.15625 -56.171875 L 66.15625 -47.125 L 21.171875 -47.125 L 21.171875 -9.3125 L 66.15625 -9.3125 L 66.15625 0 L 11.578125 0 Z M 11.578125 -95.578125 "/></g></g><g style="fill:#7f3270;fill-opacity:1;"><g transform="translate(809.431003, 530.927241)"><path style="stroke:none" d="M 11.578125 -95.578125 L 66.15625 -95.578125 L 66.15625 -86.390625 L 21.171875 -86.390625 L 21.171875 -56.171875 L 66.15625 -56.171875 L 66.15625 -47.125 L 21.171875 -47.125 L 21.171875 -9.3125 L 66.15625 -9.3125 L 66.15625 0 L 11.578125 0 Z M 11.578125 -95.578125 "/></g></g><g style="fill:#7f3270;fill-opacity:1;"><g transform="translate(880.651634, 530.927241)"><path style="stroke:none" d="M 38.875 -95.578125 C 49.789062 -95.578125 57.953125 -93.3125 63.359375 -88.78125 C 68.773438 -84.257812 71.484375 -78.050781 71.484375 -70.15625 C 71.484375 -64.476562 70.109375 -59.726562 67.359375 -55.90625 C 64.609375 -52.09375 60.75 -49.234375 55.78125 -47.328125 C 50.8125 -45.421875 45 -44.46875 38.34375 -44.46875 L 72.8125 0 L 60.96875 0 L 27.15625 -44.46875 L 21.171875 -44.46875 L 21.171875 0 L 11.578125 0 L 11.578125 -95.578125 Z M 38.34375 -53.78125 C 45.707031 -53.78125 51.40625 -55.109375 55.4375 -57.765625 C 59.476562 -60.429688 61.5 -64.5625 61.5 -70.15625 C 61.5 -75.039062 59.769531 -78.945312 56.3125 -81.875 C 52.851562 -84.800781 47.660156 -86.265625 40.734375 -86.265625 L 21.171875 -86.265625 L 21.171875 -53.78125 Z M 38.34375 -53.78125 "/></g></g><g style="fill:#7f3270;fill-opacity:1;"><g transform="translate(959.460267, 530.927241)"><path style="stroke:none" d="M 11.578125 -95.578125 L 21.171875 -95.578125 L 21.171875 0 L 11.578125 0 Z M 11.578125 -95.578125 "/></g></g><g style="fill:#7f3270;fill-opacity:1;"><g transform="translate(992.075385, 530.927241)"><path style="stroke:none" d="M 76.953125 -95.578125 L 86.53125 -95.578125 L 86.53125 0 L 84.40625 0 L 21.171875 -72.28125 L 21.171875 0 L 11.578125 0 L 11.578125 -95.578125 L 13.578125 -95.578125 L 76.953125 -22.359375 Z M 76.953125 -95.578125 "/></g></g><g style="fill:#7f3270;fill-opacity:1;"><g transform="translate(1090.053789, 530.927241)"><path style="stroke:none" d="M 109.5625 -45.921875 L 109.5625 -45.65625 C 109.5625 -35.71875 107.539062 -27.15625 103.5 -19.96875 C 99.46875 -12.78125 93.832031 -7.273438 86.59375 -3.453125 C 79.363281 0.359375 71 2.265625 61.5 2.265625 C 50.851562 2.265625 41.425781 -0.0390625 33.21875 -4.65625 C 25.007812 -9.269531 18.6875 -15.394531 14.25 -23.03125 C 9.8125 -30.664062 7.59375 -38.921875 7.59375 -47.796875 C 7.59375 -56.847656 9.8125 -65.1875 14.25 -72.8125 C 18.6875 -80.445312 24.875 -86.550781 32.8125 -91.125 C 40.757812 -95.695312 49.835938 -97.984375 60.046875 -97.984375 C 68.648438 -97.984375 76.457031 -96.453125 83.46875 -93.390625 C 90.476562 -90.328125 97.269531 -85.6875 103.84375 -79.46875 L 96.515625 -72.546875 C 91.191406 -77.785156 85.378906 -81.78125 79.078125 -84.53125 C 72.773438 -87.28125 66.519531 -88.65625 60.3125 -88.65625 C 52.320312 -88.65625 45.0625 -86.878906 38.53125 -83.328125 C 32.007812 -79.785156 26.882812 -74.90625 23.15625 -68.6875 C 19.4375 -62.476562 17.578125 -55.601562 17.578125 -48.0625 C 17.578125 -40.78125 19.484375 -33.988281 23.296875 -27.6875 C 27.109375 -21.382812 32.382812 -16.367188 39.125 -12.640625 C 45.875 -8.921875 53.421875 -7.0625 61.765625 -7.0625 C 67.890625 -7.0625 73.613281 -8.210938 78.9375 -10.515625 C 84.269531 -12.828125 88.6875 -16.203125 92.1875 -20.640625 C 95.695312 -25.078125 97.894531 -30.398438 98.78125 -36.609375 L 68.296875 -36.609375 L 68.296875 -45.921875 Z M 109.5625 -45.921875 "/></g></g></g></svg>