<?xml version="1.0" standalone="no"?>
<!DOCTYPE svg PUBLIC "-//W3C//DTD SVG 20010904//EN"
 "http://www.w3.org/TR/2001/REC-SVG-20010904/DTD/svg10.dtd">
<svg version="1.0" xmlns="http://www.w3.org/2000/svg"
 width="960.000000pt" height="960.000000pt" viewBox="0 0 960.000000 960.000000"
 preserveAspectRatio="xMidYMid meet">

<g transform="translate(0.000000,960.000000) scale(0.100000,-0.100000)"
fill="#000000" stroke="none">
<path d="M5194 5879 c-182 -23 -307 -190 -275 -365 24 -126 63 -176 260 -333
230 -184 301 -271 301 -376 0 -170 -201 -286 -358 -206 -48 24 -111 87 -152
151 l-31 48 -54 -31 c-30 -18 -55 -36 -55 -40 0 -16 69 -112 114 -159 58 -60
115 -93 196 -114 287 -73 554 183 471 454 -37 124 -103 197 -348 385 -76 59
-150 124 -164 144 -58 82 -60 173 -7 237 41 50 80 68 148 69 77 0 136 -30 203
-104 l54 -59 51 38 c28 20 52 42 52 48 0 6 -31 43 -68 82 -102 106 -209 147
-338 131z"/>
<path d="M6154 5879 c-94 -12 -188 -69 -233 -143 -11 -18 -28 -61 -37 -95 -29
-116 12 -245 108 -337 24 -23 97 -84 163 -136 213 -169 285 -260 285 -363 0
-170 -201 -286 -358 -206 -49 25 -107 82 -148 147 l-34 53 -55 -32 c-30 -18
-55 -36 -55 -40 0 -16 69 -112 114 -159 58 -60 115 -93 196 -114 287 -73 554
183 471 454 -37 124 -103 197 -348 385 -76 59 -150 124 -164 144 -58 82 -60
173 -7 237 41 50 80 68 148 69 77 0 136 -30 203 -104 l54 -59 51 38 c28 20 52
42 52 49 0 6 -31 43 -68 82 -102 105 -209 146 -338 130z"/>
<path d="M2181 5823 c-53 -114 -581 -1336 -581 -1343 0 -6 31 -10 69 -10 l69
0 56 128 c30 70 134 306 229 525 96 219 177 399 182 400 4 1 107 -230 229
-513 122 -283 225 -521 229 -527 5 -9 33 -13 78 -13 38 0 69 1 69 3 0 2 -132
311 -294 688 -178 415 -299 685 -308 687 -8 1 -20 -10 -27 -25z"/>
<path d="M3050 5160 l0 -690 330 0 330 0 0 70 0 70 -265 0 -265 0 0 620 0 620
-65 0 -65 0 0 -690z"/>
<path d="M3940 5160 l0 -690 390 0 390 0 0 70 0 70 -325 0 -325 0 0 270 0 270
325 0 325 0 0 65 0 65 -322 2 -323 3 -3 218 -2 217 330 0 330 0 0 65 0 65
-395 0 -395 0 0 -690z"/>
<path d="M7371 5823 c-57 -123 -581 -1336 -581 -1343 0 -6 30 -10 69 -10 l69
0 56 128 c31 70 134 306 229 525 95 219 177 399 182 400 4 1 107 -230 229
-513 122 -283 225 -521 229 -527 5 -9 33 -13 78 -13 38 0 69 2 69 4 0 2 -132
311 -294 687 -177 412 -299 685 -308 687 -8 1 -20 -10 -27 -25z"/>
<path d="M2275 3911 c-145 -65 -145 -287 -1 -352 77 -35 203 -16 247 37 18 22
-9 39 -31 19 -9 -8 -32 -21 -53 -30 -132 -55 -268 62 -228 195 32 108 177 154
261 83 19 -15 37 -23 47 -19 14 6 13 10 -8 32 -51 55 -157 71 -234 35z"/>
<path d="M3875 3911 c-145 -65 -145 -287 -1 -352 77 -35 203 -16 247 37 18 22
-9 39 -31 19 -9 -8 -32 -21 -53 -30 -132 -55 -268 62 -228 195 32 108 177 154
261 83 19 -15 37 -23 47 -19 14 6 13 10 -8 32 -51 55 -157 71 -234 35z"/>
<path d="M5275 3905 c-18 -17 -25 -35 -25 -62 0 -33 8 -44 75 -108 82 -76 93
-107 55 -145 -29 -29 -66 -25 -102 10 -21 21 -34 28 -45 22 -12 -7 -9 -15 20
-45 30 -32 40 -37 81 -37 39 0 53 5 77 29 53 54 34 123 -51 186 -81 59 -95 90
-60 125 26 26 42 25 77 -4 31 -26 58 -22 47 8 -18 47 -111 60 -149 21z"/>
<path d="M7075 3911 c-145 -65 -145 -287 -1 -352 77 -35 203 -16 247 37 18 22
-9 39 -31 19 -9 -8 -32 -21 -53 -30 -132 -55 -268 62 -228 195 32 108 177 154
261 83 19 -15 37 -23 47 -19 14 6 13 10 -8 32 -51 55 -157 71 -234 35z"/>
<path d="M7845 3905 c-18 -17 -25 -35 -25 -62 0 -33 8 -44 75 -108 82 -76 93
-107 55 -145 -29 -29 -66 -25 -102 10 -20 20 -34 27 -44 22 -11 -6 -9 -14 14
-41 23 -28 36 -34 79 -38 48 -5 55 -3 83 25 54 55 36 124 -50 187 -81 59 -95
90 -60 125 26 26 42 25 77 -4 49 -40 73 -14 27 29 -37 34 -96 34 -129 0z"/>
<path d="M1500 3905 c0 -11 12 -15 45 -15 l45 0 0 -170 c0 -144 2 -170 15
-170 13 0 15 26 15 170 l0 170 45 0 c33 0 45 4 45 15 0 12 -18 15 -105 15 -87
0 -105 -3 -105 -15z"/>
<path d="M1830 3735 l0 -185 104 0 c83 0 105 3 110 15 4 13 -9 15 -84 15 l-90
0 0 75 0 75 84 0 c75 0 84 2 89 20 5 19 0 20 -84 20 l-89 0 0 60 0 60 90 0
c73 0 90 3 90 15 0 12 -19 15 -110 15 l-110 0 0 -185z"/>
<path d="M2680 3735 c0 -178 1 -185 20 -185 19 0 20 7 20 90 l0 90 95 0 95 0
0 -90 c0 -83 1 -90 20 -90 19 0 20 7 20 185 0 178 -1 185 -20 185 -18 0 -20
-7 -20 -80 l0 -80 -95 0 -95 0 0 80 c0 73 -2 80 -20 80 -19 0 -20 -7 -20 -185z"/>
<path d="M3110 3735 c0 -177 1 -185 20 -185 18 0 20 8 22 140 l3 140 120 -140
c66 -76 123 -139 128 -140 4 0 7 83 7 185 0 177 -1 185 -20 185 -18 0 -20 -8
-22 -140 l-3 -141 -120 140 c-66 77 -123 140 -127 140 -5 1 -8 -82 -8 -184z"/>
<path d="M3570 3735 c0 -158 2 -185 15 -185 13 0 15 27 15 185 0 158 -2 185
-15 185 -13 0 -15 -27 -15 -185z"/>
<path d="M4394 3852 c-18 -37 -57 -120 -88 -184 -50 -107 -53 -118 -35 -118
15 0 27 15 46 60 l26 60 87 0 86 0 27 -60 c19 -44 32 -60 46 -60 17 0 8 24
-67 185 -47 102 -88 185 -91 185 -3 0 -20 -30 -37 -68z m69 -72 c15 -33 27
-62 27 -65 0 -3 -27 -5 -61 -5 -33 0 -59 4 -57 8 22 56 54 122 59 122 3 0 18
-27 32 -60z"/>
<path d="M4720 3735 l0 -185 90 0 c73 0 90 3 90 15 0 12 -14 15 -70 15 l-70 0
0 170 c0 163 -1 170 -20 170 -19 0 -20 -7 -20 -185z"/>
<path d="M5590 3735 l0 -185 104 0 c83 0 105 3 110 15 4 13 -9 15 -84 15 l-90
0 0 75 0 75 84 0 c75 0 84 2 89 20 5 19 0 20 -84 20 l-89 0 0 60 0 60 90 0
c73 0 90 3 90 15 0 12 -19 15 -110 15 l-110 0 0 -185z"/>
<path d="M5940 3735 c0 -178 1 -185 20 -185 18 0 20 7 20 85 0 62 3 85 13 85
7 0 41 -38 77 -85 48 -63 70 -85 87 -85 21 0 16 9 -42 83 l-65 82 42 12 c76
23 102 71 74 137 -19 46 -46 56 -147 56 l-79 0 0 -185z m186 130 c8 -10 14
-31 14 -46 0 -40 -33 -59 -102 -59 l-58 0 0 66 0 66 66 -4 c50 -3 70 -9 80
-23z"/>
<path d="M6310 3915 c0 -22 155 -364 162 -357 8 8 158 347 158 357 0 3 -8 5
-17 5 -13 0 -34 -37 -78 -140 -33 -77 -63 -140 -66 -140 -3 0 -33 62 -65 137
-39 90 -66 139 -77 141 -9 2 -17 1 -17 -3z"/>
<path d="M6770 3735 c0 -158 2 -185 15 -185 13 0 15 27 15 185 0 158 -2 185
-15 185 -13 0 -15 -27 -15 -185z"/>
<path d="M7480 3735 l0 -185 105 0 c87 0 105 3 105 15 0 12 -16 15 -85 15
l-85 0 0 75 0 75 84 0 c75 0 84 2 89 20 5 19 0 20 -84 20 l-89 0 0 60 0 60 90
0 c73 0 90 3 90 15 0 12 -19 15 -110 15 l-110 0 0 -185z"/>
</g>
</svg>
